<?xml version="1.0" encoding="UTF-8"?>
<svg xmlns="http://www.w3.org/2000/svg" width="800" height="500" viewBox="0 0 800 500">
<rect width="100%" height="100%" fill="#f8f9fa"/>
<text x="400.0" y="30" font-size="16" text-anchor="middle" fill="#1a1a2e">Observer-Centric LOD for Phase 0 Formation</text>
<line x1="80.0" y1="60" x2="80.0" y2="420" stroke="#e0e0e0" stroke-width="1"/>
<text x="80.0" y="440" font-size="10" text-anchor="middle" fill="#555">1 Gm</text>
<line x1="155.55555555555554" y1="60" x2="155.55555555555554" y2="420" stroke="#e0e0e0" stroke-width="1"/>
<text x="155.55555555555554" y="440" font-size="10" text-anchor="middle" fill="#555">10 Gm</text>
<line x1="231.11111111111111" y1="60" x2="231.11111111111111" y2="420" stroke="#e0e0e0" stroke-width="1"/>
<text x="231.11111111111111" y="440" font-size="10" text-anchor="middle" fill="#555">100 Gm</text>
<line x1="306.66666666666663" y1="60" x2="306.66666666666663" y2="420" stroke="#e0e0e0" stroke-width="1"/>
<text x="306.66666666666663" y="440" font-size="10" text-anchor="middle" fill="#555">1 Tm</text>
<line x1="382.22222222222223" y1="60" x2="382.22222222222223" y2="420" stroke="#e0e0e0" stroke-width="1"/>
<text x="382.22222222222223" y="440" font-size="10" text-anchor="middle" fill="#555">10 Tm</text>
<line x1="457.77777777777777" y1="60" x2="457.77777777777777" y2="420" stroke="#e0e0e0" stroke-width="1"/>
<text x="457.77777777777777" y="440" font-size="10" text-anchor="middle" fill="#555">100 Tm</text>
<line x1="533.3333333333333" y1="60" x2="533.3333333333333" y2="420" stroke="#e0e0e0" stroke-width="1"/>
<text x="533.3333333333333" y="440" font-size="10" text-anchor="middle" fill="#555">1 Pm</text>
<line x1="608.8888888888889" y1="60" x2="608.8888888888889" y2="420" stroke="#e0e0e0" stroke-width="1"/>
<text x="608.8888888888889" y="440" font-size="10" text-anchor="middle" fill="#555">10 Pm</text>
<line x1="684.4444444444445" y1="60" x2="684.4444444444445" y2="420" stroke="#e0e0e0" stroke-width="1"/>
<text x="684.4444444444445" y="440" font-size="10" text-anchor="middle" fill="#555">100 Pm</text>
<line x1="760.0" y1="60" x2="760.0" y2="420" stroke="#e0e0e0" stroke-width="1"/>
<text x="760.0" y="440" font-size="10" text-anchor="middle" fill="#555">1 Em</text>
<text x="400.0" y="470" font-size="12" text-anchor="middle" fill="#333">Camera distance from feature (m, log)</text>
<rect x="80" y="60.0" width="680" height="120.0" fill="#ffffff" stroke="#dee2e6" opacity="1.0"/>
<rect x="80.0" y="68.0" width="226.66666666666663" height="104.0" fill="#ffd166" stroke="#999" opacity="0.45"/>
<text x="193.33333333333331" y="124.0" font-size="9" text-anchor="middle" fill="#222">corona + disk</text>
<rect x="306.66666666666663" y="68.0" width="226.66666666666663" height="104.0" fill="#ffd166" stroke="#999" opacity="0.35"/>
<text x="419.99999999999994" y="124.0" font-size="9" text-anchor="middle" fill="#222">luminous sprite</text>
<rect x="533.3333333333333" y="68.0" width="226.66666666666674" height="104.0" fill="#ffd166" stroke="#999" opacity="0.25"/>
<text x="646.6666666666666" y="124.0" font-size="9" text-anchor="middle" fill="#222">point source</text>
<text x="68" y="124.0" font-size="13" text-anchor="end" fill="#1a1a2e">Star</text>
<rect x="80" y="180.0" width="680" height="120.0" fill="#ffffff" stroke="#dee2e6" opacity="1.0"/>
<rect x="80.0" y="188.0" width="226.66666666666663" height="104.0" fill="#06d6a0" stroke="#999" opacity="0.55"/>
<text x="193.33333333333331" y="244.0" font-size="9" text-anchor="middle" fill="#222">voxel sphere</text>
<rect x="306.66666666666663" y="188.0" width="226.66666666666663" height="104.0" fill="#06d6a0" stroke="#999" opacity="0.4"/>
<text x="419.99999999999994" y="244.0" font-size="9" text-anchor="middle" fill="#222">textured sphere</text>
<rect x="533.3333333333333" y="188.0" width="226.66666666666674" height="104.0" fill="#06d6a0" stroke="#999" opacity="0.3"/>
<text x="646.6666666666666" y="244.0" font-size="9" text-anchor="middle" fill="#222">billboard / impostor</text>
<text x="68" y="244.0" font-size="13" text-anchor="end" fill="#1a1a2e">Planet</text>
<rect x="80" y="300.0" width="680" height="120.0" fill="#ffffff" stroke="#dee2e6" opacity="1.0"/>
<rect x="80.0" y="308.0" width="302.22222222222223" height="104.0" fill="#118ab2" stroke="#999" opacity="0.5"/>
<text x="231.11111111111111" y="364.0" font-size="9" text-anchor="middle" fill="#222">high-res ray march</text>
<rect x="382.22222222222223" y="308.0" width="226.66666666666669" height="104.0" fill="#118ab2" stroke="#999" opacity="0.38"/>
<text x="495.55555555555554" y="364.0" font-size="9" text-anchor="middle" fill="#222">low-res point splat</text>
<rect x="608.8888888888889" y="308.0" width="151.1111111111111" height="104.0" fill="#118ab2" stroke="#999" opacity="0.25"/>
<text x="684.4444444444445" y="364.0" font-size="9" text-anchor="middle" fill="#222">integrated fog sprite</text>
<text x="68" y="364.0" font-size="13" text-anchor="end" fill="#1a1a2e">Nebula gas</text>
<line x1="306.66666666666663" y1="60" x2="306.66666666666663" y2="420" stroke="#ef476f" stroke-width="2" stroke-dasharray="4,3"/>
<text x="306.66666666666663" y="52" font-size="10" text-anchor="middle" fill="#ef476f">1 Tm</text>
<line x1="533.3333333333333" y1="60" x2="533.3333333333333" y2="420" stroke="#073b4c" stroke-width="2" stroke-dasharray="4,3"/>
<text x="533.3333333333333" y="52" font-size="10" text-anchor="middle" fill="#073b4c">1 Pm</text>
<text x="20" y="250.0" font-size="12" text-anchor="middle" fill="#333" transform="rotate(270,20,250.0)">Visual fidelity / representation</text>
</svg>